<svg width="112" height="112" viewBox="0 0 112 112" fill="none" xmlns="http://www.w3.org/2000/svg">
<g filter="url(#filter0_d_8055_255)">
<circle cx="56" cy="48" r="40" fill="white"/>
</g>
<path d="M49.0512 39.0465C48.8121 39.0191 48.5718 39.0038 48.3312 39.0008C46.8199 38.9779 45.342 39.4478 44.1187 40.34L36.8897 45.4471C36.6181 45.6455 36.3963 45.9048 36.2419 46.2044C36.0875 46.504 36.0046 46.8357 36 47.1731L35.9991 62C35.9936 62.5346 36.1999 62.9495 36.5714 63.3322C36.9429 63.7149 37.4502 63.9341 37.9821 63.9418L42.6373 64H42.8566C45.3903 63.9969 47.8948 63.4555 50.2057 62.4113C51.5914 61.7733 52.8526 60.8916 53.9298 59.8078C54.5464 59.1954 55.2325 58.658 55.974 58.2066L64.1589 53.2159C64.8948 52.7705 65.459 52.0878 65.7595 51.279C66.0601 50.4702 66.0793 49.583 65.8141 48.7618C65.567 48.0291 65.1002 47.3914 64.4777 46.9364C63.8553 46.4813 63.1078 46.2313 62.3382 46.2207C61.8735 46.2156 61.4118 46.2974 60.9768 46.4619L51.4843 50.0635C51.3519 50.1132 51.2118 50.1385 51.0705 50.1384C50.8911 50.1356 50.7147 50.0922 50.5542 50.0116C50.3938 49.931 50.2534 49.8151 50.1436 49.6726C49.9715 49.431 49.8868 49.1374 49.9036 48.8408L49.9657 40.0821C49.9673 39.8265 49.8748 39.5793 49.7059 39.3881C49.5371 39.197 49.3039 39.0753 49.0512 39.0465ZM50.996 52.2053C51.4 52.2113 51.8015 52.1407 52.1795 51.9974H52.2085L61.701 48.3999C61.8927 48.3274 62.0961 48.2908 62.301 48.2918C62.6507 48.2961 62.9904 48.4098 63.2729 48.617C63.5554 48.8242 63.7667 49.1146 63.8775 49.448C63.9912 49.8235 63.9754 50.2265 63.8327 50.5918C63.69 50.9572 63.4288 51.2634 63.0913 51.4609L54.9105 56.4516C54.0309 56.9874 53.217 57.6253 52.4857 58.3522C51.5783 59.2635 50.516 60.0044 49.3491 60.5398C47.2453 61.4912 44.9717 62.0253 42.6649 62H37.9999V47.1731L45.3229 42.016C46.0747 41.4672 46.9654 41.1429 47.8925 41.0803L47.7974 48.8158C47.7766 49.5831 48.0175 50.3345 48.4801 50.9452C48.7788 51.3312 49.16 51.6448 49.5954 51.8629C50.0309 52.0811 50.5095 52.1981 50.996 52.2053Z" fill="#FFDD2D"/>
<path d="M55.1746 63.7434C55.7741 63.6882 56.3487 63.4877 56.8436 63.1609C57.4975 63.7048 58.3374 64.0031 59.2058 64C59.3199 64 59.4355 64 59.5524 64C60.0395 63.9533 60.5112 63.8117 60.9382 63.584C61.3653 63.3562 61.7385 63.0472 62.0345 62.6761C62.5795 62.8998 63.1746 62.9902 63.7657 62.9389C64.3567 62.8876 64.9249 62.6963 65.4184 62.3825C65.9119 62.0687 66.315 61.6423 66.591 61.1421C66.8671 60.642 67.0072 60.0841 66.9987 59.5193C66.9987 59.4921 66.9987 59.4636 66.9987 59.4337L66.6392 55.9632C66.6319 55.8261 66.5955 55.6917 66.5321 55.5684C66.4686 55.4451 66.3796 55.3353 66.2702 55.2457C66.1609 55.1561 66.0336 55.0885 65.8961 55.0471C65.7585 55.0058 65.6136 54.9914 65.47 55.0049C65.3264 55.0185 65.1872 55.0596 65.0609 55.1258C64.9345 55.1921 64.8236 55.2821 64.7348 55.3903C64.6461 55.4986 64.5814 55.6229 64.5446 55.7557C64.5078 55.8885 64.4997 56.027 64.5209 56.1628L64.8761 59.5844C64.8765 59.8577 64.7902 60.1246 64.6285 60.3504C64.4668 60.5761 64.2373 60.7502 63.9699 60.8496C63.7026 60.9491 63.4099 60.9695 63.1303 60.908C62.8506 60.8465 62.5969 60.706 62.4025 60.505C62.2711 60.3734 62.1049 60.2778 61.9214 60.2281C61.7378 60.1785 61.5437 60.1767 61.3592 60.2229C61.1746 60.2691 61.0065 60.3616 60.8724 60.4908C60.7383 60.6199 60.643 60.781 60.5966 60.9572C60.5283 61.2333 60.3709 61.4823 60.1466 61.6691C59.9223 61.8559 59.6422 61.9714 59.3456 61.9992C59.0489 62.027 58.7506 61.9659 58.4922 61.8243C58.2339 61.6828 58.0285 61.4679 57.9049 61.2097C57.8232 61.046 57.697 60.906 57.5393 60.8045C57.3816 60.7029 57.1982 60.6434 57.0082 60.6322C56.8181 60.6209 56.6284 60.6584 56.4587 60.7406C56.289 60.8228 56.1456 60.9468 56.0433 61.0997C55.9277 61.2775 55.7707 61.4277 55.5845 61.5386C55.3982 61.6494 55.1877 61.7181 54.9692 61.7392C54.6854 61.7657 54.4243 61.8984 54.2434 62.1081C54.0624 62.3178 53.9763 62.5873 54.0042 62.8574C54.032 63.1275 54.1713 63.376 54.3916 63.5482C54.6119 63.7205 54.8951 63.8024 55.1789 63.7759L55.1746 63.7434Z" fill="#FFDD2D"/>
<path d="M71.9329 32H55.0535C54.2437 32.0011 53.4674 32.3372 52.8948 32.9346C52.3222 33.532 52.0001 34.3419 51.999 35.1867V45.8227C51.999 46.0919 52.1015 46.35 52.2839 46.5404C52.4664 46.7307 52.7138 46.8376 52.9718 46.8376C53.2298 46.8376 53.4772 46.7307 53.6596 46.5404C53.8421 46.35 53.9445 46.0919 53.9445 45.8227V39.4127H73.0535V49.8051C73.0525 50.1138 72.9345 50.4095 72.7253 50.6278C72.5161 50.8461 72.2326 50.9692 71.9368 50.9702H67.8628C67.6048 50.9702 67.3574 51.0772 67.175 51.2675C66.9926 51.4578 66.8901 51.7159 66.8901 51.9851C66.8901 52.2543 66.9926 52.5124 67.175 52.7027C67.3574 52.8931 67.6048 53 67.8628 53H71.9368C72.3387 53.0005 72.7368 52.9184 73.1083 52.7583C73.4799 52.5982 73.8175 52.3632 74.1019 52.0669C74.3863 51.7705 74.6119 51.4186 74.7658 51.0312C74.9198 50.6438 74.999 50.2286 74.999 49.8092V35.1949C74.9995 34.7748 74.9205 34.3588 74.7666 33.9707C74.6126 33.5826 74.3867 33.23 74.1019 32.9331C73.817 32.6363 73.4788 32.4011 73.1065 32.2409C72.7343 32.0808 72.3355 31.9989 71.9329 32ZM53.9368 37.3951V35.1867C53.9378 34.8781 54.0558 34.5824 54.265 34.3641C54.4742 34.1458 54.7576 34.0227 55.0535 34.0217H71.9329C72.2294 34.0217 72.5139 34.1443 72.7239 34.3627C72.9339 34.581 73.0525 34.8774 73.0535 35.1867V37.3951H53.9368Z" fill="#FFDD2D"/>
<defs>
<filter id="filter0_d_8055_255" x="0" y="0" width="112" height="112" filterUnits="userSpaceOnUse" color-interpolation-filters="sRGB">
<feFlood flood-opacity="0" result="BackgroundImageFix"/>
<feColorMatrix in="SourceAlpha" type="matrix" values="0 0 0 0 0 0 0 0 0 0 0 0 0 0 0 0 0 0 127 0" result="hardAlpha"/>
<feOffset dy="8"/>
<feGaussianBlur stdDeviation="8"/>
<feColorMatrix type="matrix" values="0 0 0 0 0.168627 0 0 0 0 0.419608 0 0 0 0 0.952941 0 0 0 0.16 0"/>
<feBlend mode="normal" in2="BackgroundImageFix" result="effect1_dropShadow_8055_255"/>
<feBlend mode="normal" in="SourceGraphic" in2="effect1_dropShadow_8055_255" result="shape"/>
</filter>
</defs>
</svg>
