<svg width="112" height="112" viewBox="0 0 112 112" fill="none" xmlns="http://www.w3.org/2000/svg">
<g filter="url(#filter0_d_8034_603)">
<circle cx="56" cy="48" r="40" fill="white"/>
</g>
<path d="M76.7236 57.9657C76.3269 57.425 75.9303 56.8844 75.4543 56.4209C74.3436 55.3396 72.9157 54.799 71.329 54.6445C70.7737 54.5673 70.2977 54.49 70.0597 53.8721C69.2664 51.7095 67.8384 50.1648 65.7758 49.1607C65.5378 49.0834 65.2998 48.929 65.1411 48.6973C65.0618 48.5428 64.9825 48.2338 65.0618 48.0794C65.1411 47.9249 65.4585 47.7704 65.6171 47.8477C65.8551 47.9249 66.0931 48.0794 66.3311 48.3111C66.8071 48.6973 67.2038 49.2379 67.6798 49.6241C68.7111 50.3192 69.5044 49.933 69.8217 48.7745C70.139 47.7704 70.1391 46.8436 69.9011 45.8395C69.6631 44.6809 68.6317 44.1403 67.6004 44.7582C67.1244 44.9899 66.8071 45.4533 66.4104 45.7623C66.1724 45.994 66.0138 46.2257 65.7758 46.3802C65.2205 46.7663 64.6651 46.6891 64.2685 46.1484C64.0305 45.8395 63.9512 45.5305 63.7925 45.2216C63.4752 44.6037 63.2372 44.6037 62.8405 45.1444C62.7612 45.2216 62.7612 45.2988 62.7612 45.3761C62.6818 45.3761 62.6818 45.2988 62.6025 45.2988C62.6025 45.2216 62.6025 45.0671 62.6025 44.9899C62.6025 44.1403 62.2058 43.6769 61.3332 43.5224C61.0159 43.4452 60.6192 43.4452 60.3019 43.4452C58.4772 43.4452 56.8113 42.8273 55.542 41.5915C55.066 41.2053 54.6693 40.7419 54.2727 40.2784C54.114 40.124 54.114 39.9695 54.2727 39.7378C54.4313 39.5061 54.6693 39.1971 54.7486 38.8882C54.9073 38.0386 54.114 36.4938 53.2413 36.1849C52.6067 35.9532 52.0514 35.9532 51.4167 36.1077C49.7507 36.4938 48.7987 37.6524 48.2434 39.1199C47.0534 42.2094 46.7361 45.4533 47.2121 48.7745C47.4501 50.7054 48.4021 51.7867 50.2267 52.0957C52.1307 52.4819 54.114 52.7136 56.0973 52.9453C56.9699 53.0225 57.5253 53.4087 57.8426 54.2583C58.4772 55.803 59.1119 57.425 59.7466 58.9697C59.9052 59.2787 60.0639 59.6649 60.3019 59.9738C60.9365 60.9779 61.8092 61.2096 62.9198 60.8234C64.0305 60.4373 64.5858 59.5876 64.2685 58.4291C64.0305 57.5795 63.7132 56.8071 63.3958 55.9575C62.9198 54.799 62.3645 53.6404 62.0472 52.4046C61.3332 50.0875 60.0639 48.929 57.6046 48.62C56.6526 48.4655 55.78 48.4655 54.828 48.2338C53.876 48.0794 53.5587 47.6932 53.638 46.6891C53.7173 45.994 53.7967 45.3761 53.9553 44.6809C54.0347 44.2175 54.1933 44.1403 54.6693 44.372C56.1766 45.2988 57.8426 45.9167 59.5879 46.1484C60.4605 46.2257 61.3332 46.3802 62.1265 46.1484C62.2058 46.3029 62.2058 46.3802 62.2852 46.5346C62.6818 47.3842 63.0785 48.1566 63.3958 49.0062C64.4271 51.7867 65.3791 54.5673 66.3311 57.425C66.4898 57.9657 66.7278 58.0429 67.2038 57.734C67.5211 57.5795 67.7591 57.3478 68.0764 57.1933C70.5357 55.803 72.9157 55.9575 75.2163 57.6567C75.7716 58.1201 76.3269 58.5836 76.8823 59.1242C77.1203 58.738 76.9616 58.2746 76.7236 57.9657Z" fill="#2B6BF3"/>
<path d="M63.7663 61.7376C63.6881 61.7376 63.6098 61.7376 63.5316 61.7376C62.0448 61.7376 60.558 61.7376 59.0713 61.7376C57.5063 61.7376 55.9412 61.7376 54.298 61.7376C53.5937 61.7376 53.2025 61.5035 53.046 60.8014C52.8895 60.1773 52.6547 59.6312 52.4982 59.0071C52.107 57.8369 52.0287 56.6667 52.4982 55.4184C52.5765 55.2624 52.5765 55.1064 52.6547 54.8723C52.8895 53.7021 52.42 53.078 51.1679 53C50.8549 53 50.5419 53 50.2289 53C47.8814 53 45.6121 53 43.2646 53C41.4648 53 39.5868 53.078 37.7871 53.156C36.222 53.234 35.6743 53.8582 36.222 55.2624C36.6916 56.4326 36.6133 57.4468 36.222 58.617C35.7525 60.0993 35.4395 61.5816 35.0483 63.0638C34.8918 63.6099 35.1265 63.844 35.596 63.922C36.0655 64 36.535 64 36.9263 64C37.5523 64 37.8653 63.766 38.0218 63.1418C38.1001 62.7518 38.1001 62.3617 38.1001 61.9716C38.4913 58.9291 40.8388 56.6667 43.9689 56.5106C46.9424 56.2766 49.5247 58.227 50.3072 61.1915C50.4637 61.8156 50.5419 62.5177 50.6202 63.2199C50.6984 63.6879 50.9332 63.922 51.4027 64C51.8722 64 52.2635 64 52.733 64C56.489 64 60.245 64 64.0011 64C64.3141 64 64.6271 63.922 64.7836 63.6099C65.3313 62.6738 64.7836 61.8156 63.7663 61.7376Z" fill="#2B6BF3"/>
<path d="M71.0741 59C68.7037 59 67 60.7196 67 62.9626C67 65.2056 68.7778 67 71 67C73.2963 67 75 65.2804 75 62.9626C75 60.7196 73.2963 59 71.0741 59Z" fill="#2B6BF3"/>
<path d="M44.5425 58.0025C42.0661 57.9192 40.0025 59.9181 40.0025 62.4167C39.9199 64.9985 41.901 66.9974 44.46 66.9974C46.9364 67.0807 48.9175 65.1651 49 62.5832C49 60.0014 47.1014 58.0025 44.5425 58.0025Z" fill="#2B6BF3"/>
<path d="M55.0266 35.9352C56.5808 36.2523 58.2986 35.3802 58.953 33.8738C59.1984 33.3188 59.2802 32.7638 59.362 32.1295C59.9346 32.2881 60.589 32.4467 61.2434 32.6052C61.6524 32.6845 61.8977 32.6052 61.9795 32.2881C62.0613 31.971 61.8978 31.7331 61.4888 31.6538C60.7526 31.4953 60.0164 31.2574 59.2802 31.0988C59.1166 31.0195 58.8712 30.861 58.7894 30.7024C57.9714 29.3546 56.2536 28.7203 54.6994 29.1167C53.1452 29.5131 52 30.9403 52 32.526C52 34.1909 53.227 35.5388 55.0266 35.9352Z" fill="#2B6BF3"/>
<defs>
<filter id="filter0_d_8034_603" x="0" y="0" width="112" height="112" filterUnits="userSpaceOnUse" color-interpolation-filters="sRGB">
<feFlood flood-opacity="0" result="BackgroundImageFix"/>
<feColorMatrix in="SourceAlpha" type="matrix" values="0 0 0 0 0 0 0 0 0 0 0 0 0 0 0 0 0 0 127 0" result="hardAlpha"/>
<feOffset dy="8"/>
<feGaussianBlur stdDeviation="8"/>
<feColorMatrix type="matrix" values="0 0 0 0 0.168627 0 0 0 0 0.419608 0 0 0 0 0.952941 0 0 0 0.16 0"/>
<feBlend mode="normal" in2="BackgroundImageFix" result="effect1_dropShadow_8034_603"/>
<feBlend mode="normal" in="SourceGraphic" in2="effect1_dropShadow_8034_603" result="shape"/>
</filter>
</defs>
</svg>
