<svg width="112" height="112" viewBox="0 0 112 112" fill="none" xmlns="http://www.w3.org/2000/svg">
<g filter="url(#filter0_d_8054_243)">
<circle cx="56" cy="48" r="40" fill="white"/>
</g>
<path d="M60 55H52V52L38 49V61.5266C38 63.448 39.5916 65 41.5621 65H70.4379C72.4084 65 74 63.448 74 61.5266V49L60 52V55Z" fill="#FD466E"/>
<path d="M70.4379 37.9999H64V36.0208C64 32.9728 61.9179 31 59 31H53C50.0821 31 48 32.9729 48 36.0208V38H41.5718C39.6013 38 38.0097 39.6625 38.0097 41.7208L38 47L52 50V47H60V50L74 47V41.6812C74 39.6624 72.4084 37.9999 70.4379 37.9999ZM51 36.5C51 35.5 51.5 35 52.5 35H59.5C60.5 35 61 35.5 61 36.5V38H51V36.5Z" fill="#FD466E"/>
<path d="M59 48H53V54H59V48Z" fill="#FD466E"/>
<defs>
<filter id="filter0_d_8054_243" x="0" y="0" width="112" height="112" filterUnits="userSpaceOnUse" color-interpolation-filters="sRGB">
<feFlood flood-opacity="0" result="BackgroundImageFix"/>
<feColorMatrix in="SourceAlpha" type="matrix" values="0 0 0 0 0 0 0 0 0 0 0 0 0 0 0 0 0 0 127 0" result="hardAlpha"/>
<feOffset dy="8"/>
<feGaussianBlur stdDeviation="8"/>
<feColorMatrix type="matrix" values="0 0 0 0 0.168627 0 0 0 0 0.419608 0 0 0 0 0.952941 0 0 0 0.16 0"/>
<feBlend mode="normal" in2="BackgroundImageFix" result="effect1_dropShadow_8054_243"/>
<feBlend mode="normal" in="SourceGraphic" in2="effect1_dropShadow_8054_243" result="shape"/>
</filter>
</defs>
</svg>
