<svg width="112" height="112" viewBox="0 0 112 112" fill="none" xmlns="http://www.w3.org/2000/svg">
<g filter="url(#filter0_d_8055_254)">
<circle cx="56" cy="48" r="40" fill="white"/>
</g>
<path d="M61.2574 46.6774C60.4 46.4883 59.5127 46.4883 58.6553 46.6774L57.1114 46.9421L55.897 34.4845C55.8189 33.7769 55.4783 33.1262 54.9447 32.6652C54.4112 32.2042 53.7248 31.9676 53.0256 32.0036C52.3265 32.0396 51.6671 32.3455 51.1821 32.859C50.697 33.3725 50.4228 34.0548 50.4153 34.7669V53.8237C48.5272 52.7408 46.5367 51.854 44.4738 51.1769C44.0692 51.0306 43.6353 50.9884 43.2108 51.0541C42.7863 51.1198 42.3844 51.2913 42.0408 51.5534C41.6973 51.8154 41.4229 52.1599 41.242 52.556C41.0612 52.9522 40.9795 53.3877 41.0043 53.8237C41.0226 54.2566 41.1413 54.679 41.3509 55.0562C41.5604 55.4335 41.8548 55.7549 42.21 55.9941C44.4808 57.5851 46.5241 59.4882 48.2816 61.6494C49.0255 62.5479 49.9215 63.3038 50.927 63.8815C52.5457 64.8565 54.261 65.655 56.0445 66.2637C57.7184 66.7854 59.3038 67.565 60.7456 68.5752L61.1099 68.8399C61.2985 68.9744 61.532 69.0272 61.7589 68.9867C61.9858 68.9461 62.1876 68.8156 62.3199 68.6237C62.4522 68.4318 62.5041 68.1944 62.4642 67.9636C62.4244 67.7327 62.296 67.5275 62.1074 67.3929L61.7431 67.1371C60.1823 66.0306 58.4656 65.1709 56.6516 64.5874C54.9834 64.0192 53.3786 63.274 51.8638 62.364C51.0388 61.8857 50.302 61.2647 49.6867 60.5289C47.8176 58.2337 45.6461 56.2119 43.2335 54.5207C43.0975 54.4471 42.9833 54.3381 42.9025 54.2047C42.8217 54.0714 42.7773 53.9186 42.7738 53.762C42.7663 53.6154 42.7949 53.4692 42.857 53.3368C42.9191 53.2043 43.0128 53.0896 43.1294 53.0032C43.2411 52.9154 43.3721 52.8567 43.5112 52.8321C43.6503 52.8075 43.7931 52.8178 43.9274 52.8621C46.3456 53.6297 48.6441 54.7437 50.7536 56.1706C50.8822 56.2701 51.0356 56.3312 51.1966 56.3467C51.3575 56.3623 51.5195 56.3319 51.6643 56.2588C51.8103 56.186 51.9332 56.073 52.0191 55.9326C52.105 55.7922 52.1503 55.6301 52.15 55.4647V34.7669C52.1565 34.5069 52.2592 34.259 52.4376 34.0727C52.616 33.8865 52.857 33.7756 53.1123 33.7622C53.3676 33.7488 53.6185 33.834 53.8148 34.0006C54.011 34.1672 54.1383 34.4031 54.171 34.661L55.4807 48.1155C55.4929 48.2378 55.5301 48.3562 55.5899 48.463C55.6497 48.5699 55.7308 48.6628 55.8279 48.7359C55.9251 48.809 56.0363 48.8607 56.1542 48.8875C56.2722 48.9144 56.3943 48.9159 56.5129 48.8919L59.0282 48.3714C59.6372 48.2391 60.2668 48.2391 60.8757 48.3714L63.7988 49.0331C64.4524 49.1833 65.0644 49.4808 65.5899 49.9038C66.1153 50.3268 66.5407 50.8644 66.8345 51.4769L68.283 54.4501C68.9064 55.7373 69.2299 57.1531 69.2285 58.588C69.2269 59.5593 69.3523 60.5265 69.6014 61.4641C69.598 61.4934 69.598 61.5231 69.6014 61.5524L72.2903 68.4428C72.3566 68.6127 72.4732 68.7575 72.6239 68.857C72.7746 68.9566 72.9521 69.0061 73.1316 68.9987C73.2415 68.9989 73.3504 68.978 73.4525 68.9369C73.5585 68.8941 73.6552 68.8305 73.737 68.7497C73.8188 68.6689 73.8841 68.5724 73.9292 68.4659C73.9743 68.3594 73.9984 68.2448 73.9999 68.1288C74.0015 68.0129 73.9805 67.8977 73.9383 67.79L71.2668 60.9524C71.0626 60.1815 70.9605 59.3863 70.9632 58.588C70.9621 56.8922 70.5762 55.2195 69.8356 53.7002L68.3871 50.7182C67.9796 49.8704 67.3899 49.1266 66.6618 48.5417C65.9337 47.9568 65.0856 47.5458 64.1804 47.3391L61.2574 46.6774Z" fill="#FD466E"/>
<path d="M41.7188 37H47.1562C47.3966 37 47.6271 36.9122 47.7971 36.7559C47.967 36.5996 48.0625 36.3877 48.0625 36.1667C48.0625 35.9457 47.967 35.7337 47.7971 35.5774C47.6271 35.4211 47.3966 35.3333 47.1562 35.3333H41.7188C41.4784 35.3333 41.2479 35.2455 41.0779 35.0893C40.908 34.933 40.8125 34.721 40.8125 34.5V29.5C40.8125 29.279 40.908 29.067 41.0779 28.9107C41.2479 28.7545 41.4784 28.6667 41.7188 28.6667H65.2812C65.5216 28.6667 65.7521 28.7545 65.9221 28.9107C66.092 29.067 66.1875 29.279 66.1875 29.5V34.5C66.1875 34.721 66.092 34.933 65.9221 35.0893C65.7521 35.2455 65.5216 35.3333 65.2812 35.3333H59.8438C59.6034 35.3333 59.3729 35.4211 59.2029 35.5774C59.033 35.7337 58.9375 35.9457 58.9375 36.1667C58.9375 36.3877 59.033 36.5996 59.2029 36.7559C59.3729 36.9122 59.6034 37 59.8438 37H65.2812C66.0023 37 66.6938 36.7366 67.2037 36.2678C67.7136 35.7989 68 35.163 68 34.5V29.5C68 28.837 67.7136 28.2011 67.2037 27.7322C66.6938 27.2634 66.0023 27 65.2812 27H41.7188C40.9977 27 40.3062 27.2634 39.7963 27.7322C39.2864 28.2011 39 28.837 39 29.5V34.5C39 35.163 39.2864 35.7989 39.7963 36.2678C40.3062 36.7366 40.9977 37 41.7188 37Z" fill="#FD466E"/>
<defs>
<filter id="filter0_d_8055_254" x="0" y="0" width="112" height="112" filterUnits="userSpaceOnUse" color-interpolation-filters="sRGB">
<feFlood flood-opacity="0" result="BackgroundImageFix"/>
<feColorMatrix in="SourceAlpha" type="matrix" values="0 0 0 0 0 0 0 0 0 0 0 0 0 0 0 0 0 0 127 0" result="hardAlpha"/>
<feOffset dy="8"/>
<feGaussianBlur stdDeviation="8"/>
<feColorMatrix type="matrix" values="0 0 0 0 0.168627 0 0 0 0 0.419608 0 0 0 0 0.952941 0 0 0 0.16 0"/>
<feBlend mode="normal" in2="BackgroundImageFix" result="effect1_dropShadow_8055_254"/>
<feBlend mode="normal" in="SourceGraphic" in2="effect1_dropShadow_8055_254" result="shape"/>
</filter>
</defs>
</svg>
