<svg width="112" height="112" viewBox="0 0 112 112" fill="none" xmlns="http://www.w3.org/2000/svg">
<g filter="url(#filter0_d_8052_463)">
<circle cx="56" cy="48" r="40" fill="white"/>
</g>
<path d="M56 29C46.6879 29 39.1111 36.5768 39.1111 45.8889H37V56.4444H39.1111H41.2222H43.3333V45.8889C43.3333 38.9032 49.0143 33.2222 56 33.2222C62.9857 33.2222 68.6667 38.9032 68.6667 45.8889V55.315L57.4714 62.7778H53.8889V67H58.7508L72.8889 57.5739V56.4444H75V45.8889H72.8889C72.8889 36.5768 65.3121 29 56 29Z" fill="#FFDD2D"/>
<path d="M67 48C67 41.9346 62.0654 37 56 37C49.9346 37 45 41.9346 45 48C45 54.0654 49.9346 59 56 59C62.0654 59 67 54.0654 67 48Z" fill="#FFDD2D"/>
<defs>
<filter id="filter0_d_8052_463" x="0" y="0" width="112" height="112" filterUnits="userSpaceOnUse" color-interpolation-filters="sRGB">
<feFlood flood-opacity="0" result="BackgroundImageFix"/>
<feColorMatrix in="SourceAlpha" type="matrix" values="0 0 0 0 0 0 0 0 0 0 0 0 0 0 0 0 0 0 127 0" result="hardAlpha"/>
<feOffset dy="8"/>
<feGaussianBlur stdDeviation="8"/>
<feColorMatrix type="matrix" values="0 0 0 0 0.168627 0 0 0 0 0.419608 0 0 0 0 0.952941 0 0 0 0.16 0"/>
<feBlend mode="normal" in2="BackgroundImageFix" result="effect1_dropShadow_8052_463"/>
<feBlend mode="normal" in="SourceGraphic" in2="effect1_dropShadow_8052_463" result="shape"/>
</filter>
</defs>
</svg>
