<svg width="112" height="112" viewBox="0 0 112 112" fill="none" xmlns="http://www.w3.org/2000/svg">
<g filter="url(#filter0_d_8055_253)">
<circle cx="56" cy="48" r="40" fill="white"/>
</g>
<path d="M64.1501 48H62.8499C62.6245 48 62.4083 48.1054 62.2489 48.2929C62.0895 48.4804 62 48.7348 62 49C62 49.2652 62.0895 49.5196 62.2489 49.7071C62.4083 49.8946 62.6245 50 62.8499 50H64.1501C64.3755 50 64.5917 49.8946 64.7511 49.7071C64.9105 49.5196 65 49.2652 65 49C65 48.7348 64.9105 48.4804 64.7511 48.2929C64.5917 48.1054 64.3755 48 64.1501 48Z" fill="#2B6BF3"/>
<path d="M68.1513 48H66.8487C66.6236 48 66.4077 48.1054 66.2486 48.2929C66.0894 48.4804 66 48.7348 66 49C66 49.2652 66.0894 49.5196 66.2486 49.7071C66.4077 49.8946 66.6236 50 66.8487 50H68.1513C68.3764 50 68.5923 49.8946 68.7514 49.7071C68.9106 49.5196 69 49.2652 69 49C69 48.7348 68.9106 48.4804 68.7514 48.2929C68.5923 48.1054 68.3764 48 68.1513 48Z" fill="#2B6BF3"/>
<path d="M72.1513 48H70.8487C70.6236 48 70.4077 48.1054 70.2486 48.2929C70.0894 48.4804 70 48.7348 70 49C70 49.2652 70.0894 49.5196 70.2486 49.7071C70.4077 49.8946 70.6236 50 70.8487 50H72.1513C72.3764 50 72.5923 49.8946 72.7514 49.7071C72.9106 49.5196 73 49.2652 73 49C73 48.7348 72.9106 48.4804 72.7514 48.2929C72.5923 48.1054 72.3764 48 72.1513 48Z" fill="#2B6BF3"/>
<path d="M64.1501 52H62.8499C62.6245 52 62.4083 52.1054 62.2489 52.2929C62.0895 52.4804 62 52.7348 62 53C62 53.2652 62.0895 53.5196 62.2489 53.7071C62.4083 53.8946 62.6245 54 62.8499 54H64.1501C64.3755 54 64.5917 53.8946 64.7511 53.7071C64.9105 53.5196 65 53.2652 65 53C65 52.7348 64.9105 52.4804 64.7511 52.2929C64.5917 52.1054 64.3755 52 64.1501 52Z" fill="#2B6BF3"/>
<path d="M68.1513 52H66.8487C66.6236 52 66.4077 52.1054 66.2486 52.2929C66.0894 52.4804 66 52.7348 66 53C66 53.2652 66.0894 53.5196 66.2486 53.7071C66.4077 53.8946 66.6236 54 66.8487 54H68.1513C68.3764 54 68.5923 53.8946 68.7514 53.7071C68.9106 53.5196 69 53.2652 69 53C69 52.7348 68.9106 52.4804 68.7514 52.2929C68.5923 52.1054 68.3764 52 68.1513 52Z" fill="#2B6BF3"/>
<path d="M72.1513 52H70.8487C70.6236 52 70.4077 52.1054 70.2486 52.2929C70.0894 52.4804 70 52.7348 70 53C70 53.2652 70.0894 53.5196 70.2486 53.7071C70.4077 53.8946 70.6236 54 70.8487 54H72.1513C72.3764 54 72.5923 53.8946 72.7514 53.7071C72.9106 53.5196 73 53.2652 73 53C73 52.7348 72.9106 52.4804 72.7514 52.2929C72.5923 52.1054 72.3764 52 72.1513 52Z" fill="#2B6BF3"/>
<path d="M64.1501 56H62.8499C62.6245 56 62.4083 56.1054 62.2489 56.2929C62.0895 56.4804 62 56.7348 62 57C62 57.2652 62.0895 57.5196 62.2489 57.7071C62.4083 57.8946 62.6245 58 62.8499 58H64.1501C64.3755 58 64.5917 57.8946 64.7511 57.7071C64.9105 57.5196 65 57.2652 65 57C65 56.7348 64.9105 56.4804 64.7511 56.2929C64.5917 56.1054 64.3755 56 64.1501 56Z" fill="#2B6BF3"/>
<path d="M68.1513 56H66.8487C66.6236 56 66.4077 56.1054 66.2486 56.2929C66.0894 56.4804 66 56.7348 66 57C66 57.2652 66.0894 57.5196 66.2486 57.7071C66.4077 57.8946 66.6236 58 66.8487 58H68.1513C68.3764 58 68.5923 57.8946 68.7514 57.7071C68.9106 57.5196 69 57.2652 69 57C69 56.7348 68.9106 56.4804 68.7514 56.2929C68.5923 56.1054 68.3764 56 68.1513 56Z" fill="#2B6BF3"/>
<path d="M72.1513 56H70.8487C70.6236 56 70.4077 56.1054 70.2486 56.2929C70.0894 56.4804 70 56.7348 70 57C70 57.2652 70.0894 57.5196 70.2486 57.7071C70.4077 57.8946 70.6236 58 70.8487 58H72.1513C72.3764 58 72.5923 57.8946 72.7514 57.7071C72.9106 57.5196 73 57.2652 73 57C73 56.7348 72.9106 56.4804 72.7514 56.2929C72.5923 56.1054 72.3764 56 72.1513 56Z" fill="#2B6BF3"/>
<path d="M73.3913 44.0863H63.8261V28.8695C63.8261 28.6389 63.7345 28.4177 63.5714 28.2547C63.4083 28.0916 63.1871 28 62.9565 28H36.8696C36.6389 28 36.4178 28.0916 36.2547 28.2547C36.0916 28.4177 36 28.6389 36 28.8695V64.5203C35.9997 64.6601 36.0332 64.7979 36.0975 64.922C36.1619 65.0461 36.2552 65.1529 36.3696 65.2333L40.1 67.8419C40.2464 67.9448 40.421 68 40.6 68C40.779 68 40.9536 67.9448 41.1 67.8419L44.3261 65.5811L47.5522 67.8419C47.6986 67.9448 47.8732 68 48.0522 68C48.2311 68 48.4058 67.9448 48.5522 67.8419L51.7783 65.5811L55.0043 67.8419C55.1508 67.9448 55.3254 68 55.5043 68C55.6833 68 55.8579 67.9448 56.0043 67.8419L59.2304 65.5811L62.4565 67.8419C62.6031 67.9442 62.7777 67.9989 62.9565 67.9984C63.0962 67.9998 63.2339 67.9654 63.3565 67.8984C63.4976 67.8253 63.616 67.7149 63.6988 67.5792C63.7816 67.4436 63.8256 67.2878 63.8261 67.1289V61.0422H73.3913C74.0832 61.0422 74.7467 60.7673 75.2359 60.2781C75.7252 59.7889 76 59.1254 76 58.4336V46.6949C76 46.0031 75.7252 45.3396 75.2359 44.8503C74.7467 44.3611 74.0832 44.0863 73.3913 44.0863ZM62.087 32.7824H60.7565L62.087 31.452V32.7824ZM62.087 30.226L59.5304 32.7824H56.8435L59.887 29.7391H62.087V30.226ZM37.7391 32.3477L40.3478 29.7391H43.0435L40 32.7824H37.7391V32.3477ZM44.2609 29.7391H46.9391L43.8957 32.7824H41.2174L44.2609 29.7391ZM48.1739 29.7391H50.8522L47.8087 32.7824H45.1304L48.1739 29.7391ZM52.087 29.7391H54.7652L51.7217 32.7824H49.0435L52.087 29.7391ZM56 29.7391H58.6783L55.6348 32.7824H52.9565L56 29.7391ZM39.1304 29.7391L37.7391 31.1303V29.7391H39.1304ZM62.087 65.4594L59.7304 63.8073C59.584 63.7044 59.4094 63.6491 59.2304 63.6491C59.0515 63.6491 58.8769 63.7044 58.7304 63.8073L55.5043 66.068L52.2783 63.8073C52.1318 63.7044 51.9572 63.6491 51.7783 63.6491C51.5993 63.6491 51.4247 63.7044 51.2783 63.8073L48.0522 66.068L44.8261 63.8073C44.6797 63.7044 44.5051 63.6491 44.3261 63.6491C44.1471 63.6491 43.9725 63.7044 43.8261 63.8073L40.6 66.068L37.7391 64.0855V34.5215H62.087V44.0863H61.6522C60.9603 44.0863 60.2968 44.3611 59.8075 44.8503C59.3183 45.3396 59.0435 46.0031 59.0435 46.6949V58.4336C59.0435 59.1254 59.3183 59.7889 59.8075 60.2781C60.2968 60.7673 60.9603 61.0422 61.6522 61.0422H62.087V65.4594ZM74.2609 58.4336C74.2609 58.6642 74.1693 58.8853 74.0062 59.0484C73.8431 59.2115 73.6219 59.3031 73.3913 59.3031H61.6522C61.4216 59.3031 61.2004 59.2115 61.0373 59.0484C60.8742 58.8853 60.7826 58.6642 60.7826 58.4336V46.6949C60.7826 46.4643 60.8742 46.2431 61.0373 46.08C61.2004 45.917 61.4216 45.8254 61.6522 45.8254H73.3913C73.6219 45.8254 73.8431 45.917 74.0062 46.08C74.1693 46.2431 74.2609 46.4643 74.2609 46.6949V58.4336Z" fill="#2B6BF3"/>
<path d="M57.05 51H39.95C39.698 51 39.4564 51.1054 39.2782 51.2929C39.1001 51.4804 39 51.7348 39 52C39 52.2652 39.1001 52.5196 39.2782 52.7071C39.4564 52.8946 39.698 53 39.95 53H57.05C57.302 53 57.5436 52.8946 57.7218 52.7071C57.8999 52.5196 58 52.2652 58 52C58 51.7348 57.8999 51.4804 57.7218 51.2929C57.5436 51.1054 57.302 51 57.05 51Z" fill="#2B6BF3"/>
<path d="M57.05 55H39.95C39.698 55 39.4564 55.1054 39.2782 55.2929C39.1001 55.4804 39 55.7348 39 56C39 56.2652 39.1001 56.5196 39.2782 56.7071C39.4564 56.8946 39.698 57 39.95 57H57.05C57.302 57 57.5436 56.8946 57.7218 56.7071C57.8999 56.5196 58 56.2652 58 56C58 55.7348 57.8999 55.4804 57.7218 55.2929C57.5436 55.1054 57.302 55 57.05 55Z" fill="#2B6BF3"/>
<path d="M57.05 59H39.95C39.698 59 39.4564 59.1054 39.2782 59.2929C39.1001 59.4804 39 59.7348 39 60C39 60.2652 39.1001 60.5196 39.2782 60.7071C39.4564 60.8946 39.698 61 39.95 61H57.05C57.302 61 57.5436 60.8946 57.7218 60.7071C57.8999 60.5196 58 60.2652 58 60C58 59.7348 57.8999 59.4804 57.7218 59.2929C57.5436 59.1054 57.302 59 57.05 59Z" fill="#2B6BF3"/>
<path d="M43.438 44.915C42.6267 45.035 41.7076 44.55 41.1686 43.715C41.1033 43.5875 41.0082 43.4735 40.8897 43.3804C40.7712 43.2873 40.6318 43.2171 40.4806 43.1745C40.3294 43.1318 40.1698 43.1176 40.0119 43.1327C39.8541 43.1478 39.7016 43.192 39.5644 43.2623C39.4271 43.3327 39.3081 43.4276 39.2151 43.541C39.1221 43.6544 39.0571 43.7837 39.0244 43.9206C38.9916 44.0576 38.9919 44.199 39.0251 44.3358C39.0582 44.4727 39.1236 44.6018 39.217 44.715C39.8111 45.6413 40.7606 46.3505 41.8948 46.715V48H44.1642V46.82C45.4633 46.525 46.8136 45.61 46.9724 44.32C47.2561 42.085 45.2705 41.5 44.635 41.32C44.0677 41.16 43.6309 41.04 43.2337 40.945C42.1842 40.68 41.9799 40.61 41.7643 40.32C41.6431 40.1324 41.6085 39.9109 41.6677 39.7015C41.7268 39.492 41.8752 39.3106 42.082 39.195C42.2649 39.1154 42.4639 39.0686 42.6675 39.0575C42.8711 39.0463 43.0751 39.071 43.2678 39.13C43.6002 39.203 43.9114 39.3369 44.1812 39.523C44.451 39.7091 44.6733 39.9432 44.8336 40.21C44.9698 40.4467 45.2071 40.626 45.4933 40.7086C45.7795 40.7911 46.0911 40.77 46.3597 40.65C46.6283 40.53 46.8318 40.3209 46.9254 40.0686C47.0191 39.8164 46.9952 39.5417 46.859 39.305C46.2896 38.3551 45.3231 37.6378 44.1642 37.305V36H41.8721V37.145C41.4872 37.214 41.1211 37.3481 40.7942 37.54C40.087 37.948 39.5912 38.5856 39.4148 39.3142C39.2385 40.0427 39.3957 40.8032 39.8524 41.43C40.5446 42.355 41.4466 42.58 42.587 42.87C42.9557 42.965 43.3812 43.07 43.8918 43.22C44.6918 43.46 44.7599 43.605 44.6974 44.115C44.6577 44.395 44.0734 44.82 43.438 44.915Z" fill="#2B6BF3"/>
<defs>
<filter id="filter0_d_8055_253" x="0" y="0" width="112" height="112" filterUnits="userSpaceOnUse" color-interpolation-filters="sRGB">
<feFlood flood-opacity="0" result="BackgroundImageFix"/>
<feColorMatrix in="SourceAlpha" type="matrix" values="0 0 0 0 0 0 0 0 0 0 0 0 0 0 0 0 0 0 127 0" result="hardAlpha"/>
<feOffset dy="8"/>
<feGaussianBlur stdDeviation="8"/>
<feColorMatrix type="matrix" values="0 0 0 0 0.168627 0 0 0 0 0.419608 0 0 0 0 0.952941 0 0 0 0.16 0"/>
<feBlend mode="normal" in2="BackgroundImageFix" result="effect1_dropShadow_8055_253"/>
<feBlend mode="normal" in="SourceGraphic" in2="effect1_dropShadow_8055_253" result="shape"/>
</filter>
</defs>
</svg>
